<?xml version="1.0" encoding="UTF-8"?>
<svg xmlns="http://www.w3.org/2000/svg" xmlns:xlink="http://www.w3.org/1999/xlink" width="58px" height="45px" viewBox="0 0 58 45" version="1.1">
    <!-- Generator: Sketch 52.6 (67491) - http://www.bohemiancoding.com/sketch -->
    <title>025 - Free Delivery</title>
    <desc>Created with Sketch.</desc>
    <g id="Page-1" stroke="none" stroke-width="1" fill="none" fill-rule="evenodd">
        <g id="025---Free-Delivery">
            <path d="M41.29,36 L36,36 L38,4 L47.06,4 C47.6553306,3.99691919 48.2206108,4.26120602 48.6,4.72 L57.54,15.44 C57.8374212,15.8002465 58.0000726,16.2528417 58,16.72 L58,34 C57.9967052,35.1032019 57.1032019,35.9967052 56,36 L41.29,36 Z" id="Path" fill="#3B97D3"/>
            <path d="M38,2 L38,36 L16.71,36 C15.8275269,33.0303431 13.0980028,30.9939659 10,30.9939659 C6.90199723,30.9939659 4.17247313,33.0303431 3.29,36 L2,36 C0.896798134,35.9967052 0.00329480111,35.1032019 0,34 L0,2 C0.00329480111,0.896798134 0.896798134,0.00329480111 2,0 L36,0 C37.1032019,0.00329480111 37.9967052,0.896798134 38,2 Z" id="Path" fill="#F29C1F"/>
            <path d="M46,27 L44,27 C43.4477153,27 43,26.5522847 43,26 C43,25.4477153 43.4477153,25 44,25 L46,25 C46.5522847,25 47,25.4477153 47,26 C47,26.5522847 46.5522847,27 46,27 Z" id="Path" fill="#2980BA"/>
            <path d="M17,38 C16.9999999,41.8659932 13.8659932,44.9999999 10,44.9999999 C6.13400679,44.9999999 3.00000006,41.8659932 3,38 C2.99810101,37.3227218 3.09581303,36.6488458 3.29,36 C4.17247313,33.0303431 6.90199723,30.9939659 10,30.9939659 C13.0980028,30.9939659 15.8275269,33.0303431 16.71,36 C16.904187,36.6488458 17.001899,37.3227218 17,38 Z" id="Path" fill="#547580"/>
            <circle id="Oval" fill="#ECF0F1" cx="10" cy="38" r="2"/>
            <path d="M55,38 C55,41.8659932 51.8659932,45 48,45 C44.1340068,45 41,41.8659932 41,38 C40.998101,37.3227218 41.095813,36.6488458 41.29,36 C42.1724731,33.0303431 44.9019972,30.9939659 48,30.9939659 C51.0980028,30.9939659 53.8275269,33.0303431 54.71,36 C54.904187,36.6488458 55.001899,37.3227218 55,38 Z" id="Path" fill="#547580"/>
            <circle id="Oval" fill="#ECF0F1" cx="48" cy="38" r="2"/>
            <path d="M58,16.72 L58,20 L45,20 C43.8967981,19.9967052 43.0032948,19.1032019 43,18 L43,3.99997336 L47.06,4 C47.6553306,3.99691919 48.2206108,4.26120602 48.6,4.72 L57.54,15.44 C57.8374212,15.8002465 58.0000726,16.2528417 58,16.72 Z" id="Path" fill="#67B9CC"/>
            <path d="M5,22 C5.55228475,22 6,21.5522847 6,21 L6,17 L8,17 C8.55228475,17 9,16.5522847 9,16 C9,15.4477153 8.55228475,15 8,15 L6,15 L6,12 L9,12 C9.55228475,12 10,11.5522847 10,11 C10,10.4477153 9.55228475,10 9,10 L5,10 C4.44771525,10 4,10.4477153 4,11 L4,21 C4,21.5522847 4.44771525,22 5,22 Z" id="Path" fill="#F5EFCA"/>
            <path d="M22,22 L26,22 C26.5522847,22 27,21.5522847 27,21 C27,20.4477153 26.5522847,20 26,20 L23,20 L23,17 L25,17 C25.5522847,17 26,16.5522847 26,16 C26,15.4477153 25.5522847,15 25,15 L23,15 L23,12 L26,12 C26.5522847,12 27,11.5522847 27,11 C27,10.4477153 26.5522847,10 26,10 L22,10 C21.4477153,10 21,10.4477153 21,11 L21,21 C21,21.5522847 21.4477153,22 22,22 Z" id="Path" fill="#F5EFCA"/>
            <path d="M33,20 L30,20 L30,17 L32,17 C32.5522847,17 33,16.5522847 33,16 C33,15.4477153 32.5522847,15 32,15 L30,15 L30,12 L33,12 C33.5522847,12 34,11.5522847 34,11 C34,10.4477153 33.5522847,10 33,10 L29,10 C28.4477153,10 28,10.4477153 28,11 L28,21 C28,21.5522847 28.4477153,22 29,22 L33,22 C33.5522847,22 34,21.5522847 34,21 C34,20.4477153 33.5522847,20 33,20 Z" id="Path" fill="#F5EFCA"/>
            <path d="M12,22 C12.5522847,22 13,21.5522847 13,21 L13,17 L14.669,17 C15.293,17.491 17,19.015 17,21 C17,21.5522847 17.4477153,22 18,22 C18.5522847,22 19,21.5522847 19,21 C18.9416658,19.3460992 18.2750905,17.7718848 17.128,16.579 C18.5530714,15.8339258 19.2840669,14.2111414 18.8977886,12.6501311 C18.5115104,11.0891208 17.1080839,9.99450769 15.5,10 L12,10 C11.4477153,10 11,10.4477153 11,11 L11,21 C11,21.5522847 11.4477153,22 12,22 Z M13,12 L15.5,12 C16.3284271,12 17,12.6715729 17,13.5 C17,14.3284271 16.3284271,15 15.5,15 L13,15 L13,12 Z" id="Shape" fill="#F5EFCA" fill-rule="nonzero"/>
            <path d="M33,24 L4,24 C3.44771525,24 3,24.4477153 3,25 C3,25.5522847 3.44771525,26 4,26 L33,26 C33.5522847,26 34,25.5522847 34,25 C34,24.4477153 33.5522847,24 33,24 Z" id="Path" fill="#F5EFCA"/>
        </g>
    </g>
</svg>
